<?xml version="1.0" standalone="no"?>
<!DOCTYPE svg PUBLIC "-//W3C//DTD SVG 20010904//EN"
 "http://www.w3.org/TR/2001/REC-SVG-20010904/DTD/svg10.dtd">
<svg version="1.0" xmlns="http://www.w3.org/2000/svg"
 width="688.000000pt" height="688.000000pt" viewBox="0 0 688.000000 688.000000"
 preserveAspectRatio="xMidYMid meet">
<metadata>
Created by potrace 1.11, written by Peter Selinger 2001-2013
</metadata>
<g transform="translate(0.000000,688.000000) scale(0.100000,-0.100000)"
fill="#000000" stroke="none">
<path d="M602 5984 c-298 -65 -526 -298 -587 -599 -14 -72 -15 -267 -13 -1980
3 -1782 4 -1904 21 -1959 52 -175 155 -323 293 -422 60 -43 171 -100 213 -109
11 -3 31 -7 44 -10 12 -3 42 -10 67 -15 27 -5 1154 -9 2805 -9 2387 1 2769 3
2825 15 36 8 74 17 84 19 37 9 168 75 210 107 152 117 247 258 292 436 l24 95
-1 1891 0 1891 -24 94 c-40 155 -135 304 -255 400 -62 50 -203 127 -245 135
-11 2 -47 11 -80 20 -54 14 -335 16 -2835 15 -2319 -1 -2785 -3 -2838 -15z
m503 -304 c66 0 127 1 135 1 8 0 51 0 95 0 44 1 91 1 105 1 14 -1 79 -1 145
-1 66 0 127 0 135 0 8 0 51 0 95 0 44 1 91 1 105 1 14 -1 79 -1 145 -1 66 0
127 0 135 0 8 0 51 0 95 0 44 1 89 1 100 1 11 0 337 -1 725 -1 388 0 714 0
725 0 11 0 74 0 140 0 66 0 127 0 135 0 8 0 51 0 95 0 44 1 91 1 105 1 14 -1
79 -1 145 -1 66 0 127 0 135 0 8 0 51 0 95 0 44 1 91 1 105 1 14 -1 79 -1 145
-1 66 0 127 0 135 0 8 0 51 0 95 0 44 1 91 1 105 1 14 -1 79 -1 145 -1 66 0
127 0 135 0 8 0 51 0 95 0 44 1 91 1 105 1 20 -1 224 -1 280 -1 143 0 198 -9
280 -49 56 -27 170 -133 170 -158 0 -8 3 -14 8 -14 4 0 12 -12 19 -27 29 -69
40 -133 39 -225 -1 -54 1 -98 4 -98 4 0 4 -16 2 -35 l-4 -36 -72 0 c-39 1 -80
1 -91 0 -36 0 -150 0 -165 0 -8 0 -44 0 -80 0 -36 0 -72 0 -80 0 -8 0 -44 0
-80 0 -36 0 -71 0 -77 0 -31 0 -254 0 -265 0 -7 -1 -26 0 -43 1 -16 1 -79 1
-140 1 -60 0 -137 0 -170 0 -33 0 -64 -1 -70 -2 -5 -1 -14 -1 -19 0 -7 2 -162
1 -231 -1 -5 0 -57 1 -115 2 -58 1 -109 1 -115 0 -5 -1 -14 -2 -19 -1 -5 1
-57 1 -115 1 -58 -1 -117 -2 -131 -1 -14 0 -54 0 -90 0 -36 0 -72 0 -80 0 -8
0 -44 0 -80 0 -36 0 -72 0 -80 0 -8 0 -44 0 -80 0 -36 0 -69 0 -75 0 -5 0 -89
0 -185 1 -96 1 -179 0 -185 -1 -5 -1 -14 -1 -19 0 -5 1 -57 2 -115 1 -58 -1
-110 -1 -116 -1 -5 -1 -93 0 -195 1 -102 1 -189 0 -195 -1 -5 -1 -14 -1 -19 0
-5 1 -57 2 -115 1 -58 -1 -110 -1 -116 -1 -5 0 -68 0 -140 0 -71 0 -137 0
-145 0 -8 -1 -28 0 -45 1 -16 1 -79 1 -140 1 -60 0 -137 0 -170 0 -33 0 -64
-1 -70 -2 -5 -1 -14 -1 -19 0 -7 2 -162 1 -231 -1 -5 0 -57 1 -115 2 -58 1
-109 1 -115 0 -5 -1 -14 -2 -19 -1 -7 2 -183 1 -231 -1 -5 0 -23 1 -40 2 -16
1 -52 1 -80 1 -27 0 -57 0 -65 0 -8 0 -64 0 -125 0 -60 0 -137 0 -170 0 -33 0
-64 -1 -70 -2 -5 -1 -13 -1 -16 -1 -15 2 -125 3 -224 3 -60 0 -127 1 -147 1
l-38 1 -1 46 c-1 25 0 51 1 56 1 6 1 30 0 55 -1 25 -1 50 -1 55 0 20 12 91 18
110 4 11 7 22 8 25 1 3 13 28 27 56 53 102 169 194 278 222 19 4 91 9 160 11
68 1 126 3 128 6 2 2 14 1 25 -1 12 -3 76 -5 142 -4z m-531 -960 c33 1 68 1
76 1 8 0 69 0 135 0 66 0 127 0 135 0 8 0 51 0 95 0 44 1 91 1 105 1 14 -1 54
-1 90 -1 36 0 72 0 80 0 8 0 69 0 135 0 66 0 127 0 135 0 8 0 51 0 95 0 44 1
91 1 105 1 14 -1 54 -1 90 -1 36 0 72 0 80 0 8 0 69 0 135 0 66 0 127 0 135 0
8 0 51 0 95 0 44 1 89 1 100 1 11 0 121 -1 245 -1 124 0 234 0 245 0 11 0 74
0 140 0 66 0 127 0 135 0 8 0 51 0 95 0 44 1 89 1 100 1 11 0 139 -1 285 -1
403 -1 413 -2 448 -4 17 -2 32 1 32 6 0 4 4 5 10 2 5 -3 36 -6 67 -5 32 0 67
1 78 1 11 0 56 0 100 0 44 1 85 1 90 1 6 -1 80 -1 165 -1 85 0 164 0 175 0 11
0 74 0 140 0 66 0 127 0 135 0 8 0 51 0 95 0 44 1 89 1 100 1 11 0 139 -1 285
-1 403 -1 413 -2 448 -4 17 -2 32 1 32 6 0 4 4 5 10 2 8 -5 64 -6 140 -4 8 1
29 0 45 -1 17 -1 80 -2 140 -1 61 0 127 -1 148 -1 l38 -1 -1 -76 c-1 -133 0
-224 1 -291 1 -36 1 -71 0 -77 0 -15 0 -227 0 -245 1 -7 0 -33 0 -58 -1 -25
-1 -79 -1 -120 1 -263 1 -337 1 -350 0 -8 0 -51 0 -95 1 -44 1 -86 1 -92 -1
-15 -1 -227 -1 -245 1 -7 0 -33 0 -58 -1 -25 -1 -79 -1 -120 1 -263 1 -337 1
-350 0 -8 0 -51 0 -95 1 -44 1 -86 1 -92 -1 -15 -1 -227 -1 -245 1 -7 0 -33 0
-58 -1 -25 -1 -79 -1 -120 1 -255 -6 -386 -25 -435 -62 -163 -202 -275 -365
-291 -34 -3 -109 -4 -235 -3 -33 0 -64 -1 -70 -2 -5 -1 -14 -1 -19 0 -7 2
-162 1 -231 -1 -5 0 -57 1 -115 2 -58 1 -109 1 -115 0 -5 -1 -14 -2 -19 -1 -7
2 -183 1 -231 -1 -5 0 -23 1 -40 2 -16 1 -52 1 -80 1 -27 0 -57 0 -65 0 -8 0
-64 0 -125 0 -60 0 -137 0 -170 0 -33 0 -64 -1 -70 -2 -5 -1 -14 -1 -19 0 -7
2 -162 1 -231 -1 -5 0 -57 1 -115 2 -58 1 -109 1 -115 0 -5 -1 -14 -2 -19 -1
-5 1 -57 1 -115 1 -58 -1 -117 -2 -131 -1 -14 0 -54 0 -90 0 -36 0 -72 0 -80
0 -8 0 -44 0 -80 0 -36 0 -72 0 -80 0 -8 0 -44 0 -80 0 -36 0 -71 0 -77 0 -31
0 -254 0 -265 0 -7 -1 -26 0 -43 1 -16 1 -79 1 -140 1 -60 0 -137 0 -170 0
-33 0 -64 -1 -70 -2 -5 -1 -14 -1 -19 0 -7 2 -162 1 -231 -1 -5 0 -57 1 -115
2 -58 1 -109 1 -115 0 -5 -1 -14 -2 -19 -1 -5 1 -57 1 -115 1 -58 -1 -117 -2
-131 -1 -14 0 -54 0 -90 0 -36 0 -72 0 -80 0 -8 0 -44 0 -80 0 -36 0 -72 0
-80 0 -8 0 -44 0 -80 0 -36 0 -71 0 -77 0 -31 0 -254 0 -265 0 -7 -1 -26 0
-43 1 -32 2 -220 2 -325 0 -78 -1 -135 3 -135 10 0 1 -7 3 -15 5 -42 9 -108
38 -139 61 -46 34 -121 115 -121 132 0 6 -3 12 -8 12 -8 0 -28 41 -43 92 -12
37 -18 124 -19 243 0 161 -1 199 -6 207 -3 4 -2 8 3 8 4 0 7 62 5 137 -1 76
-3 144 -3 151 0 97 0 110 2 147 0 14 0 143 0 180 0 8 0 57 0 108 -1 179 -2
220 -7 229 -3 4 -2 8 3 8 7 0 9 136 2 242 -2 26 -1 50 2 52 3 3 2 30 -1 61 -3
30 -4 55 -1 55 5 0 5 90 1 110 0 3 -1 70 0 150 1 213 0 272 -6 282 -3 4 -2 8
3 8 4 0 7 62 5 137 -1 76 -3 144 -3 151 0 97 0 110 2 147 0 8 0 49 0 90 0 72
0 89 -2 118 0 6 0 51 1 98 l1 86 72 2 c39 1 73 4 76 7 2 2 13 1 24 -2 11 -3
47 -5 81 -4z"/>
<path d="M4175 4535 c-115 -40 -129 -52 -355 -295 -58 -62 -132 -141 -165
-176 -33 -35 -94 -100 -135 -145 -41 -45 -95 -103 -120 -129 -25 -26 -92 -98
-150 -160 -58 -62 -123 -132 -145 -155 -22 -24 -85 -91 -140 -151 -55 -59
-113 -122 -130 -139 -16 -18 -77 -83 -135 -144 -58 -62 -138 -147 -178 -189
-67 -71 -107 -133 -116 -178 -2 -11 -41 -162 -85 -337 -86 -337 -91 -375 -53
-426 58 -79 115 -84 296 -29 72 21 138 41 146 43 27 6 324 93 360 105 35 12
93 68 280 270 52 56 111 119 130 139 100 106 285 304 299 320 10 11 73 79 142
152 68 73 140 150 159 170 19 21 81 86 136 146 56 59 114 122 130 139 86 93
223 241 254 274 94 99 110 121 139 176 45 87 62 166 57 265 -2 46 -9 96 -15
112 -6 15 -8 27 -5 27 3 0 -12 32 -32 70 -34 65 -128 180 -148 180 -4 0 -19 9
-33 20 -84 66 -267 87 -388 45z m204 -311 c24 -9 50 -31 67 -55 23 -33 27 -50
27 -102 -1 -103 10 -87 -223 -334 -41 -44 -122 -131 -180 -193 -58 -62 -123
-132 -145 -155 -35 -36 -156 -166 -267 -286 -79 -85 -257 -276 -301 -323 -27
-28 -88 -94 -137 -146 -48 -52 -103 -111 -121 -131 -173 -185 -160 -174 -229
-193 -36 -10 -72 -21 -80 -24 -8 -3 -19 -6 -25 -8 -5 -1 -38 -11 -72 -22 l-63
-20 5 32 c2 17 16 76 30 131 15 55 28 105 29 110 18 73 32 97 94 161 37 39
110 117 162 173 52 56 113 122 135 145 22 23 94 100 160 171 66 71 136 146
155 166 19 20 80 85 135 144 55 59 114 122 130 140 17 17 82 87 145 155 63 68
130 139 149 159 18 20 79 85 135 145 132 142 136 146 171 162 40 18 67 17 114
-2z"/>
</g>
</svg>
