<svg width="43" height="32" viewBox="0 0 43 32" fill="none" xmlns="http://www.w3.org/2000/svg">
<path d="M38.2727 1H4.72727C2.66876 1 1 2.67893 1 4.75V27.25C1 29.3211 2.66876 31 4.72727 31H38.2727C40.3312 31 42 29.3211 42 27.25V4.75C42 2.67893 40.3312 1 38.2727 1Z" stroke="black" stroke-width="2" stroke-linecap="round" stroke-linejoin="round"/>
<path d="M1 7L42 7" stroke="black" stroke-width="2" stroke-linecap="round" stroke-linejoin="round"/>
<path d="M25.5909 10.6267C25.7763 10.428 25.9964 10.2704 26.2387 10.1629C26.481 10.0553 26.7407 10 27.003 10C27.2652 10 27.5249 10.0553 27.7672 10.1629C28.0095 10.2704 28.2296 10.428 28.4151 10.6267C28.6005 10.8254 28.7476 11.0613 28.848 11.3209C28.9483 11.5805 29 11.8587 29 12.1397C29 12.4207 28.9483 12.6989 28.848 12.9585C28.7476 13.2181 28.6005 13.454 28.4151 13.6527L18.8833 23.8653L15 25L16.0591 20.8393L25.5909 10.6267Z" stroke="black" stroke-width="2" stroke-linecap="round" stroke-linejoin="round"/>
</svg>
